<?xml version="1.0" encoding="UTF-8"?>
<svg id="Ebene_1" data-name="Ebene 1" xmlns="http://www.w3.org/2000/svg" viewBox="0 0 573.62 162.1">
  <defs>
    <style>
      .cls-1 {
        fill: #fff;
      }
    </style>
  </defs>
  <path class="cls-1" d="m76.18,80.71h.22L29.68.1H0l46.73,80.61h.7c-.26,0-.46.21-.46.46v79.68c0,.26.21.46.46.46h28.75c.26,0,.46-.21.46-.46v-79.68c0-.26-.21-.46-.46-.46Z"/>
  <polygon class="cls-1" points="73.43 0 55.06 29.58 76.2 64.32 97.34 29.58 97.4 29.58 115.76 0 73.43 0"/>
  <polygon class="cls-1" points="188.37 .1 158.7 .1 116 161.32 145.67 161.32 188.37 .1"/>
  <polygon class="cls-1" points="405.95 .1 390.94 .1 376.27 .1 344.74 110.13 313.21 .1 298.54 .1 283.54 .1 268.87 .1 268.87 161.32 298.54 161.32 298.54 52.46 329.73 161.32 330.07 161.32 359.41 161.32 359.75 161.32 390.94 52.46 390.94 161.32 420.62 161.32 420.62 .1 405.95 .1"/>
  <polygon class="cls-1" points="245.31 161.99 203.05 .77 183.88 91.6 192.65 109.28 180.14 109.28 174.83 134.45 206.82 134.45 206.82 161.99 245.31 161.99"/>
  <polygon class="cls-1" points="516.68 .21 487 .21 444.3 161.42 473.98 161.42 516.68 .21"/>
  <polygon class="cls-1" points="573.62 162.1 531.35 .88 512.18 91.71 520.96 109.39 508.45 109.39 503.14 134.55 535.12 134.55 535.12 162.1 573.62 162.1"/>
</svg>